<svg width="37" height="30" viewBox="0 0 37 30" fill="none" xmlns="http://www.w3.org/2000/svg">
<g clip-path="url(#clip0_1_587)">
<path fill-rule="evenodd" clip-rule="evenodd" d="M37.0072 0.824311C36.9568 0.576885 36.8527 0.383042 36.391 0.181319C35.4375 -0.237887 33.3399 0.203382 33.1902 0.21599C31.5906 0.529607 30.0178 0.978756 28.4765 1.53034C26.1914 2.34827 23.9803 3.39155 21.8401 4.48685C19.5723 5.67354 17.3943 6.99105 15.3834 8.51343C13.3489 10.0547 11.4719 11.7804 9.76984 13.6589C8.74704 14.7889 7.78571 15.9709 6.91578 17.2222C4.92061 20.0952 3.35568 23.2487 2.14692 26.6275C2.10437 26.7252 2.15007 26.8387 2.24778 26.8813C2.34549 26.9238 2.45896 26.8813 2.50309 26.782C4.1216 23.6868 6.1278 20.921 8.35936 18.3458C9.31439 17.2458 10.3025 16.1821 11.3363 15.1608C13.0526 13.4682 14.8996 11.9128 16.8491 10.466C18.778 9.03349 20.7905 7.69077 22.9291 6.52141C24.6154 5.57583 26.3521 4.67281 28.1361 3.88168C29.9043 3.09842 31.712 2.42076 33.5779 1.95743L36.8133 1.00712C36.9473 0.933053 37.0245 0.896806 37.0088 0.825887" fill="black"/>
<path fill-rule="evenodd" clip-rule="evenodd" d="M3.24369 15.3263C3.26575 14.6014 2.61488 14.0135 1.90412 14.1617C1.84739 14.1743 1.80641 14.1869 1.79065 14.2027C1.65039 14.3335 1.5716 14.5951 1.44394 14.9528C1.33363 15.2649 1.24852 15.6273 1.18864 16.026C1.02158 17.115 1.04365 18.3191 1.02946 18.4641C0.950667 20.5979 0.517277 23.1195 0.499942 25.4708C0.493638 26.6071 0.583468 27.7087 0.830894 28.7188C0.879748 28.9127 0.966426 29.1538 1.0925 29.3461C1.19967 29.51 1.33363 29.6487 1.48492 29.7527C1.8269 29.9891 2.24611 30.0663 2.70786 29.9371C3.17435 29.8078 3.80158 29.2641 4.02379 29.0892C4.9804 28.3264 5.95907 27.6157 6.93459 26.9159C7.85495 26.254 8.7958 25.6347 9.72247 24.9838C11.1235 24.002 12.4741 22.9902 13.9602 22.0651C14.1872 21.9564 14.2801 21.6838 14.1714 21.4552C14.0611 21.2283 13.7884 21.1337 13.5615 21.2441C11.5522 21.9769 9.61373 22.7113 7.78561 23.7215C6.04417 24.6828 4.44615 25.8837 2.83867 27.1255C2.76933 26.5897 2.74096 26.035 2.73623 25.4676C2.71732 23.1384 3.10343 20.6357 3.14283 18.5255L3.24054 15.3247L3.24369 15.3263Z" fill="black"/>
</g>
<defs>
<clipPath id="clip0_1_587">
<rect width="36.5087" height="30" fill="white" transform="translate(0.5)"/>
</clipPath>
</defs>
</svg>
