<svg width="96" height="650" viewBox="0 0 96 650" fill="none" xmlns="http://www.w3.org/2000/svg">
<path d="M49.5161 647.798C52.679 646.959 54.5627 643.717 53.7235 640.557C52.8843 637.396 49.6399 635.514 46.477 636.352C43.3141 637.191 41.4303 640.433 42.2695 643.593C43.1088 646.754 46.3532 648.636 49.5161 647.798Z" fill="#F5F5F5"/>
<path d="M49.52 13.6469C52.6829 12.8083 54.5666 9.56636 53.7274 6.40582C52.8882 3.24528 49.6438 1.36296 46.4809 2.20156C43.318 3.04015 41.4342 6.2821 42.2735 9.44264C43.1127 12.6032 46.3571 14.4855 49.52 13.6469Z" fill="#F5F5F5"/>
<path d="M49.8144 644.263V640.548H47.9991C23.6668 640.548 3.87278 620.762 3.87278 596.448C3.87278 572.134 23.6668 552.355 47.9991 552.355H49.8144V483.607C75.3084 482.649 95.7559 461.622 95.7559 435.915C95.7559 410.208 75.3084 389.188 49.8144 388.23V321.847H47.9991C23.6668 321.847 3.87278 302.068 3.87278 277.754C3.87278 253.44 23.6668 233.654 47.9991 233.654H49.8144V164.906C75.3084 163.948 95.7559 142.928 95.7559 117.221C95.7559 91.5141 75.3084 70.4869 49.8144 69.5292V4.07516C49.8144 3.07387 49.0011 2.26123 47.9991 2.26123C46.997 2.26123 46.1838 3.07387 46.1838 4.07516V73.1208H47.9991C72.3313 73.1208 92.1253 92.9072 92.1253 117.221C92.1253 141.535 72.3313 161.314 47.9991 161.314H46.1838V230.062C20.6897 231.02 0.242188 252.047 0.242188 277.754C0.242188 303.461 20.6897 324.489 46.1838 325.439V391.822H47.9991C72.3313 391.822 92.1253 411.601 92.1253 435.915C92.1253 460.229 72.3313 480.015 47.9991 480.015H46.1838V548.763C20.6897 549.721 0.242188 570.741 0.242188 596.448C0.242188 622.155 20.6897 643.182 46.1838 644.14V644.263H49.8144Z" fill="#F5F5F5"/>
<path d="M45 92C46.6594 92 48 93.3406 48 95V105.5H42V95C42 93.3406 43.3406 92 45 92ZM33 98C33 96.3406 34.3406 95 36 95C37.6594 95 39 96.3406 39 98V105.5H33V98ZM51 98C51 96.3406 52.3406 95 54 95C55.6594 95 57 96.3406 57 98V107C57 108.659 55.6594 110 54 110C52.3406 110 51 108.659 51 107V98ZM60 104C60 102.341 61.3406 101 63 101C64.6594 101 66 102.341 66 104V110C66 111.659 64.6594 113 63 113C61.3406 113 60 111.659 60 110V104ZM51 112.25V112.194C51.8813 112.7 52.9031 113 54 113C55.2375 113 56.3813 112.625 57.3375 111.987C58.1531 114.322 60.3844 116 63 116C64.0969 116 65.1188 115.709 66 115.194V116C66 120.903 63.6469 125.263 60 128V137C60 138.659 58.6594 140 57 140H42C40.3406 140 39 138.659 39 137V129.65C37.3781 128.909 35.8875 127.888 34.6031 126.603L33.5156 125.516C31.2656 123.266 30 120.209 30 117.031V114.5C30 111.191 32.6906 108.5 36 108.5H44.25C46.3219 108.5 48 110.178 48 112.25C48 114.322 46.3219 116 44.25 116H39C38.175 116 37.5 116.675 37.5 117.5C37.5 118.325 38.175 119 39 119H44.25C47.9813 119 51 115.981 51 112.25Z" fill="#0B0A0C"/>
<path d="M28.4625 441.206L45.4031 457.022C46.1063 457.678 47.0344 458.043 48 458.043C48.9656 458.043 49.8938 457.678 50.5969 457.022L67.5375 441.206C70.3875 438.553 72 434.831 72 430.94V430.397C72 423.843 67.2656 418.256 60.8063 417.178C56.5312 416.465 52.1812 417.862 49.125 420.918L48 422.043L46.875 420.918C43.8188 417.862 39.4688 416.465 35.1938 417.178C28.7344 418.256 24 423.843 24 430.397V430.94C24 434.831 25.6125 438.553 28.4625 441.206Z" fill="#0B0A0C"/>
<g clip-path="url(#clip0_21_252)">
<path d="M55.5 577.5C55.5 575.016 53.4844 573 51 573C48.5156 573 46.5 575.016 46.5 577.5C46.5 579.984 48.5156 582 51 582C53.4844 582 55.5 579.984 55.5 577.5ZM37.2844 589.453C38.2125 588.525 39.4781 588 40.8 588C40.9781 588 41.1562 588.009 41.325 588.028L38.4 596.812C37.5281 599.438 38.5594 602.325 40.9125 603.797L48.9937 608.85L46.6125 617.175C46.1531 618.769 47.0812 620.428 48.675 620.887C50.2687 621.347 51.9281 620.419 52.3875 618.825L55.0781 609.412C55.6312 607.481 54.8344 605.419 53.1375 604.359L47.8125 601.031L50.7094 593.306L51.1875 594.459C52.5937 597.816 55.8656 600 59.5031 600H61.5C63.1594 600 64.5 598.659 64.5 597C64.5 595.341 63.1594 594 61.5 594H59.5031C58.2937 594 57.1969 593.269 56.7375 592.153L56.1469 590.747C54.7781 587.456 52.0125 584.944 48.6 583.894L44.0344 582.487C42.9937 582.169 41.9062 582 40.8094 582C37.9031 582 35.1094 583.153 33.0562 585.216L30.8812 587.381C29.7094 588.553 29.7094 590.456 30.8812 591.628C32.0531 592.8 33.9562 592.8 35.1281 591.628L37.2937 589.463L37.2844 589.453ZM34.05 606H28.5C26.8406 606 25.5 607.341 25.5 609C25.5 610.659 26.8406 612 28.5 612H35.025C36.8062 612 38.4187 610.95 39.1406 609.328L40.2187 606.9L39.3281 606.338C37.6875 605.316 36.4687 603.825 35.775 602.128L34.05 606Z" fill="#0B0A0C"/>
</g>
<g clip-path="url(#clip1_21_252)">
<path d="M48 303C61.2562 303 72 292.256 72 279C72 265.744 61.2562 255 48 255C34.7438 255 24 265.744 24 279C24 292.256 34.7438 303 48 303ZM48 267C49.2469 267 50.25 268.003 50.25 269.25V279.75C50.25 280.997 49.2469 282 48 282C46.7531 282 45.75 280.997 45.75 279.75V269.25C45.75 268.003 46.7531 267 48 267ZM51 288C51 289.659 49.6594 291 48 291C46.3406 291 45 289.659 45 288C45 286.341 46.3406 285 48 285C49.6594 285 51 286.341 51 288Z" fill="#0B0A0C"/>
</g>
<defs>
<clipPath id="clip0_21_252">
<rect width="42" height="48" fill="white" transform="translate(24 573)"/>
</clipPath>
<clipPath id="clip1_21_252">
<rect width="48" height="48" fill="white" transform="translate(24 255)"/>
</clipPath>
</defs>
</svg>
