<svg width="49" height="48" viewBox="0 0 49 48" fill="none" xmlns="http://www.w3.org/2000/svg">
<g clip-path="url(#clip0_1_577)">
<path d="M24.5 48C37.7562 48 48.5 37.2562 48.5 24C48.5 10.7438 37.7562 0 24.5 0C11.2438 0 0.5 10.7438 0.5 24C0.5 37.2562 11.2438 48 24.5 48ZM24.5 12C25.7469 12 26.75 13.0031 26.75 14.25V24.75C26.75 25.9969 25.7469 27 24.5 27C23.2531 27 22.25 25.9969 22.25 24.75V14.25C22.25 13.0031 23.2531 12 24.5 12ZM27.5 33C27.5 34.6594 26.1594 36 24.5 36C22.8406 36 21.5 34.6594 21.5 33C21.5 31.3406 22.8406 30 24.5 30C26.1594 30 27.5 31.3406 27.5 33Z" fill="#0B0A0C"/>
</g>
<defs>
<clipPath id="clip0_1_577">
<rect width="48" height="48" fill="white" transform="translate(0.5)"/>
</clipPath>
</defs>
</svg>
