<svg width="49" height="42" viewBox="0 0 49 42" fill="none" xmlns="http://www.w3.org/2000/svg">
<path d="M4.9625 24.2109L21.9031 40.0265C22.6063 40.6827 23.5344 41.0484 24.5 41.0484C25.4656 41.0484 26.3938 40.6827 27.0969 40.0265L44.0375 24.2109C46.8875 21.5577 48.5 17.8359 48.5 13.9452V13.4015C48.5 6.84835 43.7656 1.26085 37.3063 0.182729C33.0312 -0.529771 28.6812 0.867104 25.625 3.92335L24.5 5.04835L23.375 3.92335C20.3188 0.867104 15.9688 -0.529771 11.6938 0.182729C5.23438 1.26085 0.5 6.84835 0.5 13.4015V13.9452C0.5 17.8359 2.1125 21.5577 4.9625 24.2109Z" fill="#0B0A0C"/>
</svg>
