<svg width="60" height="16" viewBox="0 0 60 16" fill="none" xmlns="http://www.w3.org/2000/svg">
<path d="M0.373539 15V0.787691H2.968V12.7108H9.05354V15H0.373539ZM18.3142 15.2289C17.2713 15.2289 16.2984 15.0445 15.3954 14.6757C14.4924 14.3069 13.7039 13.7918 13.0299 13.1305C12.3558 12.4691 11.828 11.6933 11.4465 10.8031C11.0777 9.9001 10.8933 8.92718 10.8933 7.88431C10.8933 6.82872 11.0777 5.85579 11.4465 4.96554C11.8153 4.07528 12.3368 3.29949 13.0108 2.63815C13.6849 1.97682 14.4734 1.4681 15.3763 1.112C16.2793 0.743179 17.2586 0.558768 18.3142 0.558768C19.3698 0.558768 20.3491 0.743179 21.252 1.112C22.155 1.48082 22.9435 1.9959 23.6176 2.65723C24.2916 3.30585 24.8131 4.07528 25.1819 4.96554C25.5634 5.85579 25.7542 6.82872 25.7542 7.88431C25.7542 8.92718 25.5634 9.9001 25.1819 10.8031C24.8003 11.6933 24.2726 12.4691 23.5985 13.1305C22.9244 13.7918 22.1359 14.3069 21.233 14.6757C20.3427 15.0445 19.3698 15.2289 18.3142 15.2289ZM18.3142 12.8634C19.0137 12.8634 19.6559 12.7426 20.241 12.5009C20.826 12.2466 21.3347 11.8968 21.7671 11.4517C22.2122 11.0066 22.5493 10.4788 22.7782 9.86831C23.0198 9.25785 23.1407 8.59651 23.1407 7.88431C23.1407 7.1721 23.0198 6.51713 22.7782 5.91938C22.5493 5.30892 22.2122 4.78113 21.7671 4.336C21.3347 3.87815 20.826 3.52841 20.241 3.28677C19.6559 3.04513 19.0137 2.92431 18.3142 2.92431C17.6274 2.92431 16.9915 3.04513 16.4065 3.28677C15.8215 3.52841 15.3064 3.87815 14.8613 4.336C14.4289 4.78113 14.0918 5.30892 13.8502 5.91938C13.6086 6.51713 13.4877 7.1721 13.4877 7.88431C13.4877 8.59651 13.6086 9.25785 13.8502 9.86831C14.0918 10.4788 14.4289 11.0066 14.8613 11.4517C15.3064 11.8968 15.8215 12.2466 16.4065 12.5009C16.9915 12.7426 17.6274 12.8634 18.3142 12.8634ZM35.7492 15.2289C34.7317 15.2289 33.7906 15.0445 32.9258 14.6757C32.061 14.3069 31.3042 13.7918 30.6556 13.1305C30.007 12.4691 29.4983 11.6933 29.1295 10.8031C28.7734 9.91282 28.5953 8.9399 28.5953 7.88431C28.5953 6.82872 28.767 5.85579 29.1104 4.96554C29.4665 4.06256 29.9625 3.28677 30.5984 2.63815C31.247 1.97682 32.0037 1.4681 32.8685 1.112C33.7334 0.743179 34.6745 0.558768 35.6919 0.558768C36.7094 0.558768 37.6187 0.730461 38.4199 1.07385C39.2339 1.41723 39.9206 1.87508 40.4802 2.44738C41.0398 3.00697 41.4404 3.62379 41.6821 4.29785L39.3738 5.40431C39.1067 4.66667 38.6552 4.06892 38.0193 3.61108C37.3834 3.15323 36.6076 2.92431 35.6919 2.92431C34.8017 2.92431 34.0132 3.13415 33.3264 3.55385C32.6523 3.97354 32.1245 4.5522 31.743 5.28985C31.3742 6.02749 31.1898 6.89231 31.1898 7.88431C31.1898 8.87631 31.3805 9.74749 31.7621 10.4978C32.1563 11.2355 32.6969 11.8142 33.3836 12.2338C34.0704 12.6535 34.8589 12.8634 35.7492 12.8634C36.4741 12.8634 37.1418 12.7235 37.7522 12.4437C38.3627 12.1512 38.8523 11.7442 39.2212 11.2228C39.59 10.6886 39.7744 10.0591 39.7744 9.33415V8.24677L40.9572 9.27692H35.6919V7.08308H42.3689V8.51385C42.3689 9.60759 42.1844 10.5742 41.8156 11.4135C41.4468 12.2529 40.9444 12.9588 40.3085 13.5311C39.6854 14.0907 38.9795 14.5167 38.191 14.8092C37.4025 15.089 36.5885 15.2289 35.7492 15.2289ZM52.3769 15.2289C51.3341 15.2289 50.3611 15.0445 49.4582 14.6757C48.5552 14.3069 47.7667 13.7918 47.0926 13.1305C46.4186 12.4691 45.8908 11.6933 45.5092 10.8031C45.1404 9.9001 44.956 8.92718 44.956 7.88431C44.956 6.82872 45.1404 5.85579 45.5092 4.96554C45.8781 4.07528 46.3995 3.29949 47.0735 2.63815C47.7476 1.97682 48.5361 1.4681 49.4391 1.112C50.3421 0.743179 51.3213 0.558768 52.3769 0.558768C53.4325 0.558768 54.4118 0.743179 55.3148 1.112C56.2178 1.48082 57.0063 1.9959 57.6803 2.65723C58.3544 3.30585 58.8758 4.07528 59.2446 4.96554C59.6262 5.85579 59.8169 6.82872 59.8169 7.88431C59.8169 8.92718 59.6262 9.9001 59.2446 10.8031C58.8631 11.6933 58.3353 12.4691 57.6612 13.1305C56.9872 13.7918 56.1987 14.3069 55.2957 14.6757C54.4054 15.0445 53.4325 15.2289 52.3769 15.2289ZM52.3769 12.8634C53.0764 12.8634 53.7187 12.7426 54.3037 12.5009C54.8887 12.2466 55.3974 11.8968 55.8299 11.4517C56.275 11.0066 56.612 10.4788 56.8409 9.86831C57.0826 9.25785 57.2034 8.59651 57.2034 7.88431C57.2034 7.1721 57.0826 6.51713 56.8409 5.91938C56.612 5.30892 56.275 4.78113 55.8299 4.336C55.3974 3.87815 54.8887 3.52841 54.3037 3.28677C53.7187 3.04513 53.0764 2.92431 52.3769 2.92431C51.6902 2.92431 51.0543 3.04513 50.4692 3.28677C49.8842 3.52841 49.3691 3.87815 48.924 4.336C48.4916 4.78113 48.1546 5.30892 47.9129 5.91938C47.6713 6.51713 47.5505 7.1721 47.5505 7.88431C47.5505 8.59651 47.6713 9.25785 47.9129 9.86831C48.1546 10.4788 48.4916 11.0066 48.924 11.4517C49.3691 11.8968 49.8842 12.2466 50.4692 12.5009C51.0543 12.7426 51.6902 12.8634 52.3769 12.8634Z" fill="black"/>
</svg>
